<?xml version="1.0" encoding="UTF-8" standalone="no"?>
<!DOCTYPE svg PUBLIC "-//W3C//DTD SVG 1.1//EN" "http://www.w3.org/Graphics/SVG/1.1/DTD/svg11.dtd">
<svg xmlns="http://www.w3.org/2000/svg" version="1.1" viewBox="0.00 0.00 1920.00 1080.00">
<g stroke-width="2.00" fill="none" stroke-linecap="butt">
<path stroke="#9f9f9f" vector-effect="non-scaling-stroke" d="
  M 1920.00 589.84
  C 1869.30 589.38 1816.27 592.15 1765.87 596.11
  Q 1757.02 596.81 1747.91 598.59
  Q 1675.42 612.79 1602.76 626.12"
/>
<path stroke="#d5d5d5" vector-effect="non-scaling-stroke" d="
  M 1602.76 626.12
  C 1596.19 625.16 1589.71 626.81 1581.88 626.14"
/>
<path stroke="#e8e8e8" vector-effect="non-scaling-stroke" d="
  M 1581.88 626.14
  Q 1532.70 623.85 1483.80 621.04
  C 1456.61 619.48 1429.26 616.17 1402.24 612.81
  C 1348.58 606.12 1295.02 598.57 1241.42 591.32
  C 1220.81 588.54 1198.96 587.28 1179.25 586.99
  Q 1145.09 586.49 1043.82 585.45
  Q 995.33 584.94 962.75 581.52
  Q 895.90 574.48 874.94 572.59
  C 834.73 568.96 801.12 570.10 757.38 571.73
  C 755.45 571.80 753.69 572.26 751.76 572.55
  A 0.06 0.06 0.0 0 0 751.75 572.67
  Q 751.90 572.72 752.06 572.75
  Q 752.32 572.78 752.11 572.95
  L 748.30 575.88
  A 0.75 0.73 35.1 0 1 747.61 575.99
  Q 745.53 575.27 743.43 576.01
  A 1.11 1.08 -36.0 0 1 742.42 575.86
  C 738.67 573.08 733.94 575.61 730.78 578.18
  C 726.95 581.29 721.37 582.60 716.77 584.31
  C 715.02 584.97 712.78 585.00 710.88 586.30
  C 707.58 588.55 703.08 588.25 700.69 590.96
  Q 700.33 591.37 699.78 591.28
  Q 698.10 591.00 696.70 591.74
  Q 696.25 591.97 695.75 591.99
  L 687.74 592.37
  Q 687.27 592.40 686.92 592.69
  C 685.25 594.08 683.60 593.58 682.06 593.85
  C 677.45 594.66 673.45 595.03 669.01 597.23
  Q 668.55 597.46 668.04 597.37
  Q 665.65 596.93 663.56 598.15
  Q 663.18 598.38 662.74 598.32
  Q 657.37 597.54 653.89 601.44
  C 652.20 603.33 645.17 603.42 642.61 603.68
  Q 642.04 603.74 641.66 604.18
  Q 640.10 605.97 639.95 608.32
  A 0.61 0.61 0.0 0 0 640.33 608.91
  L 644.26 610.43
  A 0.66 0.66 0.0 0 1 644.06 611.70
  C 641.97 611.81 638.07 611.67 636.06 613.44
  C 634.05 615.21 633.04 615.70 630.57 614.91
  A 1.59 0.94 -7.6 0 0 628.52 616.51
  L 629.91 617.27
  A 0.68 0.68 0.0 0 1 629.68 618.55
  L 623.02 619.43
  A 0.71 0.70 18.7 0 0 622.61 619.63
  Q 620.12 622.04 617.07 620.37
  Q 616.66 620.14 616.22 620.32
  Q 612.38 621.83 608.44 623.11
  C 604.94 624.26 602.71 628.68 598.78 627.72
  A 0.71 0.67 -57.9 0 0 598.15 627.88
  L 595.70 630.06
  A 0.61 0.60 30.5 0 1 595.14 630.20
  Q 591.15 629.28 587.73 631.06
  Q 587.21 631.33 586.63 631.26
  L 583.91 630.96
  A 0.94 0.94 0.0 0 0 583.05 631.34
  Q 581.41 633.49 578.80 632.58
  A 1.22 1.12 47.5 0 0 578.22 632.53
  Q 574.21 633.20 572.87 634.39
  Q 566.67 639.85 559.47 640.22
  Q 553.21 640.54 549.84 644.71
  A 0.90 0.89 24.8 0 1 548.96 645.03
  L 545.50 644.32
  A 1.07 1.06 -55.0 0 0 544.68 644.47
  Q 542.13 646.09 539.03 646.16
  Q 538.48 646.17 538.02 646.48
  Q 535.03 648.52 531.37 647.91
  A 1.58 1.58 0.0 0 0 530.16 648.21
  Q 527.10 650.56 523.24 650.65
  A 1.25 1.25 0.0 0 0 522.20 651.26
  Q 520.58 653.96 517.25 654.19
  A 1.45 1.43 24.6 0 0 516.51 654.46
  Q 513.23 656.91 509.30 657.82
  C 507.38 658.27 506.01 659.28 504.20 659.98
  Q 503.68 660.18 503.51 660.71
  L 502.78 663.01
  A 0.19 0.18 10.5 0 0 502.95 663.25
  Q 503.10 663.26 503.26 663.22
  A 0.10 0.07 -48.7 0 1 503.24 663.39
  Q 503.02 663.46 502.83 663.65
  Q 502.56 663.93 502.17 663.93
  Q 492.30 663.89 475.50 663.34
  C 416.10 661.40 364.80 657.65 303.00 657.43
  C 264.70 657.29 218.79 656.24 164.36 656.80
  C 156.39 656.88 149.06 658.95 140.70 658.01
  Q 134.15 657.27 131.23 657.28
  C 123.96 657.30 112.49 658.88 105.80 656.91
  C 103.05 656.10 100.62 656.59 97.68 656.10
  C 94.99 655.65 92.47 656.84 90.05 656.76
  Q 86.69 656.65 86.17 656.77
  Q 83.23 657.42 80.44 657.47
  L 0.00 658.91"
/>
<path stroke="#cbcbcb" vector-effect="non-scaling-stroke" d="
  M 1581.88 626.14
  Q 1571.79 627.53 1551.00 628.51
  Q 1422.74 634.58 1194.54 647.49
  Q 1184.71 648.05 1174.58 648.72
  Q 1076.30 655.29 978.00 661.46
  C 975.62 661.61 973.04 662.16 970.54 662.28
  Q 970.05 662.30 969.87 662.75
  C 967.39 669.13 961.66 662.78 960.01 666.47
  C 958.40 670.04 954.84 666.14 952.77 670.08
  A 1.11 1.11 0.0 0 0 952.82 671.21
  L 953.52 672.27
  A 0.61 0.60 47.9 0 1 953.49 672.98
  Q 950.99 676.11 947.51 674.49
  Q 946.96 674.23 946.39 674.42
  Q 942.19 675.80 937.74 675.15
  Q 937.16 675.06 936.74 675.45
  Q 934.60 677.41 931.61 676.97
  A 1.46 1.46 0.0 0 0 929.96 678.70
  Q 930.40 680.85 928.35 681.07
  A 1.26 1.25 -76.2 0 0 927.47 681.61
  L 926.25 683.42
  A 1.07 1.06 -73.7 0 1 925.38 683.90
  Q 922.37 683.97 920.02 685.79
  Q 919.57 686.14 919.01 686.13
  Q 914.48 686.05 913.63 690.37
  Q 913.51 690.96 912.91 691.02
  L 908.34 691.43
  Q 907.94 691.47 907.72 691.14
  L 906.51 689.29
  Q 906.09 688.66 905.40 688.98
  L 904.00 689.62
  A 0.55 0.55 0.0 0 0 904.18 690.67
  L 906.69 690.94
  A 0.28 0.28 0.0 0 1 906.67 691.50
  L 905.99 691.52"
/>
<path stroke="#838383" vector-effect="non-scaling-stroke" d="
  M 905.99 691.52
  Q 876.40 690.98 829.19 692.94
  Q 775.20 695.17 721.26 697.89"
/>
<path stroke="#7e7e7e" vector-effect="non-scaling-stroke" d="
  M 721.26 697.89
  C 712.66 698.43 704.45 695.81 696.06 693.99
  C 691.48 693.00 685.05 694.95 680.35 695.61
  C 666.94 697.51 652.18 701.38 640.68 703.40
  Q 637.85 703.90 632.83 703.68"
/>
<path stroke="#8e8e8e" vector-effect="non-scaling-stroke" d="
  M 632.83 703.68
  Q 559.42 702.93 503.57 699.92
  Q 414.84 695.14 385.19 694.29
  Q 192.61 688.78 0.00 684.91"
/>
<path stroke="#454545" vector-effect="non-scaling-stroke" d="
  M 1920.00 679.08
  L 1916.55 676.36
  Q 1916.14 676.04 1915.63 676.12
  Q 1912.07 676.70 1908.46 676.98
  C 1904.25 677.30 1899.44 678.42 1894.65 678.10
  A 0.84 0.84 0.0 0 1 1893.97 677.64
  Q 1893.33 676.34 1891.93 675.99
  A 1.08 1.08 0.0 0 0 1891.23 676.05
  C 1887.22 677.85 1884.27 676.65 1880.37 677.43
  C 1876.91 678.12 1870.95 679.03 1867.74 677.15
  A 1.43 1.42 54.9 0 0 1866.78 676.98
  C 1863.03 677.65 1859.43 677.14 1855.79 677.66
  Q 1851.26 678.31 1846.64 678.16
  C 1844.82 678.11 1844.02 676.94 1841.87 677.18
  C 1838.51 677.57 1835.36 677.13 1832.07 677.61
  Q 1827.49 678.27 1822.84 678.20
  C 1820.74 678.16 1820.05 676.76 1817.59 677.13
  C 1814.22 677.65 1811.13 677.10 1807.85 677.61
  C 1805.17 678.02 1798.59 678.94 1796.31 677.41
  A 1.37 1.37 0.0 0 0 1795.43 677.18
  C 1791.01 677.57 1787.06 677.12 1782.58 677.79
  C 1779.07 678.32 1774.92 678.58 1771.98 677.15
  A 1.67 1.61 53.5 0 0 1771.02 676.99
  C 1767.07 677.49 1763.55 676.75 1759.60 677.56
  Q 1755.33 678.43 1750.88 677.86
  Q 1750.37 677.79 1750.02 677.41
  Q 1747.88 675.12 1744.97 676.94
  Q 1744.61 677.17 1744.18 677.12
  C 1739.82 676.53 1736.28 677.77 1732.40 677.97
  C 1730.08 678.09 1726.30 678.84 1725.50 676.79
  Q 1725.31 676.31 1724.81 676.23
  C 1722.67 675.88 1721.21 676.97 1719.31 677.00
  C 1716.67 677.03 1714.73 676.81 1711.97 677.55
  Q 1708.65 678.45 1705.16 677.72
  Q 1704.61 677.60 1704.10 677.81
  Q 1702.17 678.60 1701.49 676.81
  A 0.92 0.91 82.7 0 0 1700.76 676.24
  Q 1698.83 675.98 1697.05 676.81
  Q 1696.60 677.03 1696.09 676.99
  C 1690.93 676.58 1685.61 678.13 1678.81 678.19
  A 0.99 0.99 0.0 0 1 1677.96 677.74
  Q 1676.20 675.12 1673.27 676.92
  A 1.51 1.46 32.3 0 1 1672.26 677.13
  Q 1668.75 676.63 1665.33 677.24
  C 1661.26 677.98 1658.66 678.06 1655.06 678.19
  Q 1653.98 678.22 1653.48 676.94
  A 1.06 1.03 -5.3 0 0 1652.67 676.28
  Q 1650.67 675.96 1648.80 676.92
  Q 1648.35 677.15 1647.85 677.09
  Q 1643.35 676.54 1639.00 677.78
  Q 1637.11 678.31 1630.65 678.11
  A 0.97 0.95 75.1 0 1 1629.87 677.65
  C 1628.29 675.02 1625.93 676.81 1624.14 676.93
  C 1621.54 677.10 1619.25 676.83 1616.64 677.37
  C 1613.07 678.11 1607.54 679.01 1604.24 677.12
  Q 1603.81 676.87 1603.31 676.92
  C 1599.11 677.36 1595.46 676.84 1591.18 677.63
  C 1587.91 678.24 1583.00 679.01 1580.19 676.79
  A 1.20 1.19 -28.3 0 0 1579.35 676.54
  L 1558.45 678.37
  A 0.73 0.72 72.4 0 1 1557.78 678.02
  C 1556.95 676.65 1556.11 676.36 1554.48 676.62
  C 1550.63 677.21 1547.17 676.86 1543.24 677.61
  Q 1539.17 678.39 1534.93 678.12
  Q 1534.43 678.09 1534.04 677.79
  L 1532.67 676.72
  Q 1532.29 676.42 1531.80 676.46
  L 1511.12 678.32
  Q 1510.57 678.37 1510.25 677.92
  Q 1508.11 674.98 1505.04 676.90
  A 1.56 1.53 -56.6 0 1 1504.03 677.12
  Q 1500.38 676.64 1496.85 677.32
  C 1493.23 678.02 1490.57 678.02 1487.24 678.27
  A 1.23 1.20 -24.1 0 1 1486.29 677.92
  L 1484.81 676.43
  A 0.82 0.81 60.3 0 0 1484.06 676.22
  C 1479.65 677.25 1475.55 676.83 1471.08 677.65
  Q 1466.83 678.43 1462.32 678.10
  A 1.11 1.10 74.3 0 1 1461.51 677.64
  Q 1459.88 675.33 1457.37 676.90
  A 1.55 1.51 31.8 0 1 1456.36 677.12
  C 1451.99 676.55 1448.09 677.86 1444.38 677.99
  Q 1441.68 678.09 1438.97 678.07
  Q 1438.46 678.07 1438.03 677.79
  L 1436.22 676.66
  Q 1435.79 676.39 1435.29 676.47
  C 1431.15 677.17 1427.41 676.90 1423.09 677.68
  Q 1418.81 678.45 1414.37 677.85
  Q 1413.87 677.78 1413.47 677.46
  C 1411.38 675.78 1407.17 677.04 1404.50 677.05
  C 1399.72 677.07 1392.60 679.83 1388.50 676.58
  Q 1388.10 676.26 1387.58 676.35
  C 1382.96 677.18 1378.02 676.31 1373.75 677.67
  Q 1368.46 679.35 1363.61 676.18
  Q 1363.20 675.92 1362.75 676.11
  Q 1358.87 677.81 1354.70 676.56
  A 0.64 0.63 32.1 0 0 1354.10 676.69
  Q 1351.30 679.14 1349.59 676.19
  Q 1349.56 676.13 1349.67 676.08
  Q 1349.74 676.05 1349.79 676.01
  Q 1350.24 675.74 1349.75 675.75
  Q 1349.60 675.75 1349.45 675.75
  Q 1349.23 675.75 1349.39 675.60
  Q 1349.77 675.24 1349.49 675.12"
/>
<path stroke="#828282" vector-effect="non-scaling-stroke" d="
  M 1349.49 675.12
  Q 1362.34 673.67 1410.75 667.47
  Q 1465.11 660.50 1511.99 646.73
  C 1533.26 640.49 1551.88 635.42 1572.33 631.73
  Q 1587.56 628.97 1602.76 626.12"
/>
<path stroke="#7b7b7b" vector-effect="non-scaling-stroke" d="
  M 1349.49 675.12
  L 1290.75 681.61"
/>
<path stroke="#707070" vector-effect="non-scaling-stroke" d="
  M 1290.75 681.61
  Q 1284.95 682.43 1281.07 681.92
  Q 1254.02 678.42 1226.85 676.00
  C 1219.85 675.37 1212.04 675.57 1205.10 676.03
  C 1170.93 678.32 1136.76 680.82 1102.57 682.65
  C 1062.60 684.80 1023.54 689.07 982.96 692.29
  Q 972.78 693.09 963.01 692.99
  Q 934.50 692.70 905.99 691.52"
/>
<path stroke="#333333" vector-effect="non-scaling-stroke" d="
  M 1920.00 723.30
  Q 1917.74 723.27 1915.50 722.99
  Q 1862.42 716.38 1809.25 710.50
  C 1779.96 707.26 1754.00 704.08 1727.75 703.14
  C 1637.47 699.90 1545.63 693.34 1459.99 688.75
  Q 1450.12 688.22 1440.00 688.13
  C 1401.51 687.78 1362.92 687.76 1324.45 686.35
  C 1313.50 685.95 1302.65 684.53 1291.75 683.22
  Q 1291.27 683.16 1291.27 682.67
  Q 1291.28 681.79 1290.75 681.61"
/>
<path stroke="#191919" vector-effect="non-scaling-stroke" d="
  M 1920.00 794.66
  Q 1893.65 790.31 1867.49 785.32
  C 1854.55 782.85 1841.59 780.38 1829.16 775.54
  Q 1817.52 771.01 1805.93 766.32
  C 1783.81 757.37 1758.82 759.73 1735.32 762.37
  C 1665.76 770.18 1598.57 788.75 1531.26 807.07"
/>
<path stroke="#242424" vector-effect="non-scaling-stroke" d="
  M 1531.26 807.07
  C 1530.14 807.11 1529.40 806.59 1528.48 806.54
  Q 1512.88 805.60 1497.27 806.18
  Q 1487.22 806.55 1483.23 806.29
  C 1470.10 805.43 1457.26 802.05 1444.88 797.75
  C 1418.26 788.50 1388.79 776.02 1361.75 773.99
  C 1335.38 772.00 1308.87 771.62 1282.43 771.26
  C 1225.28 770.49 1167.19 770.28 1110.94 765.31
  C 1051.02 760.01 991.29 752.97 931.66 745.08
  Q 921.84 743.79 911.98 741.62
  Q 821.63 721.73 731.31 701.69
  Q 724.85 700.25 721.26 697.89"
/>
<path stroke="#2f2f2f" vector-effect="non-scaling-stroke" d="
  M 632.83 703.68
  Q 631.18 705.28 627.26 706.05
  Q 550.81 721.21 474.19 735.43
  Q 454.21 739.14 434.09 742.02
  C 432.18 742.29 429.76 742.34 427.69 742.71"
/>
<path stroke="#333333" vector-effect="non-scaling-stroke" d="
  M 427.69 742.71
  C 407.22 741.54 381.93 740.12 359.72 742.87
  C 355.99 743.33 352.62 744.36 349.05 745.43
  Q 323.96 752.97 298.70 760.42"
/>
<path stroke="#2f2f2f" vector-effect="non-scaling-stroke" d="
  M 298.70 760.42
  Q 287.94 763.43 283.00 764.03
  Q 141.55 781.11 0.00 798.09"
/>
<path stroke="#141414" vector-effect="non-scaling-stroke" d="
  M 1531.26 807.07
  Q 1473.34 824.21 1415.24 840.73
  C 1385.00 849.33 1356.90 853.94 1330.00 856.29
  Q 1245.51 863.69 1160.69 864.05
  C 1146.68 864.11 1133.15 857.76 1119.98 853.56
  C 1103.84 848.42 1086.23 846.28 1069.00 847.25
  Q 1035.73 849.12 988.94 853.68
  Q 968.95 855.62 940.58 857.05
  C 922.76 857.94 904.39 862.36 886.99 866.20
  Q 865.43 870.95 843.45 869.21
  C 828.11 868.00 813.10 866.32 797.69 867.65
  Q 780.75 869.10 732.51 876.10
  Q 663.61 886.09 594.56 895.08
  Q 573.44 897.83 552.21 899.69
  C 536.79 901.04 524.24 900.30 510.00 896.97
  C 463.08 885.98 417.36 870.29 371.64 855.20
  C 363.34 852.46 356.26 857.38 347.10 861.97
  C 343.74 863.65 338.53 864.38 334.78 864.75
  Q 310.31 867.12 285.79 868.86
  C 282.96 869.06 279.38 869.63 276.84 870.09
  C 239.90 876.82 202.97 883.85 165.88 889.70
  C 111.99 898.20 54.65 896.01 0.00 892.80"
/>
<path stroke="#242424" vector-effect="non-scaling-stroke" d="
  M 298.70 760.42
  Q 299.56 762.35 303.43 761.65
  Q 308.54 760.72 317.30 759.75
  Q 355.90 755.47 394.43 750.65
  Q 413.86 748.22 427.69 742.71"
/>
</g>
<path fill="#f2f2f2" d="
  M 0.00 0.00
  L 1920.00 0.00
  L 1920.00 589.84
  C 1869.30 589.38 1816.27 592.15 1765.87 596.11
  Q 1757.02 596.81 1747.91 598.59
  Q 1675.42 612.79 1602.76 626.12
  C 1596.19 625.16 1589.71 626.81 1581.88 626.14
  Q 1532.70 623.85 1483.80 621.04
  C 1456.61 619.48 1429.26 616.17 1402.24 612.81
  C 1348.58 606.12 1295.02 598.57 1241.42 591.32
  C 1220.81 588.54 1198.96 587.28 1179.25 586.99
  Q 1145.09 586.49 1043.82 585.45
  Q 995.33 584.94 962.75 581.52
  Q 895.90 574.48 874.94 572.59
  C 834.73 568.96 801.12 570.10 757.38 571.73
  C 755.45 571.80 753.69 572.26 751.76 572.55
  A 0.06 0.06 0.0 0 0 751.75 572.67
  Q 751.90 572.72 752.06 572.75
  Q 752.32 572.78 752.11 572.95
  L 748.30 575.88
  A 0.75 0.73 35.1 0 1 747.61 575.99
  Q 745.53 575.27 743.43 576.01
  A 1.11 1.08 -36.0 0 1 742.42 575.86
  C 738.67 573.08 733.94 575.61 730.78 578.18
  C 726.95 581.29 721.37 582.60 716.77 584.31
  C 715.02 584.97 712.78 585.00 710.88 586.30
  C 707.58 588.55 703.08 588.25 700.69 590.96
  Q 700.33 591.37 699.78 591.28
  Q 698.10 591.00 696.70 591.74
  Q 696.25 591.97 695.75 591.99
  L 687.74 592.37
  Q 687.27 592.40 686.92 592.69
  C 685.25 594.08 683.60 593.58 682.06 593.85
  C 677.45 594.66 673.45 595.03 669.01 597.23
  Q 668.55 597.46 668.04 597.37
  Q 665.65 596.93 663.56 598.15
  Q 663.18 598.38 662.74 598.32
  Q 657.37 597.54 653.89 601.44
  C 652.20 603.33 645.17 603.42 642.61 603.68
  Q 642.04 603.74 641.66 604.18
  Q 640.10 605.97 639.95 608.32
  A 0.61 0.61 0.0 0 0 640.33 608.91
  L 644.26 610.43
  A 0.66 0.66 0.0 0 1 644.06 611.70
  C 641.97 611.81 638.07 611.67 636.06 613.44
  C 634.05 615.21 633.04 615.70 630.57 614.91
  A 1.59 0.94 -7.6 0 0 628.52 616.51
  L 629.91 617.27
  A 0.68 0.68 0.0 0 1 629.68 618.55
  L 623.02 619.43
  A 0.71 0.70 18.7 0 0 622.61 619.63
  Q 620.12 622.04 617.07 620.37
  Q 616.66 620.14 616.22 620.32
  Q 612.38 621.83 608.44 623.11
  C 604.94 624.26 602.71 628.68 598.78 627.72
  A 0.71 0.67 -57.9 0 0 598.15 627.88
  L 595.70 630.06
  A 0.61 0.60 30.5 0 1 595.14 630.20
  Q 591.15 629.28 587.73 631.06
  Q 587.21 631.33 586.63 631.26
  L 583.91 630.96
  A 0.94 0.94 0.0 0 0 583.05 631.34
  Q 581.41 633.49 578.80 632.58
  A 1.22 1.12 47.5 0 0 578.22 632.53
  Q 574.21 633.20 572.87 634.39
  Q 566.67 639.85 559.47 640.22
  Q 553.21 640.54 549.84 644.71
  A 0.90 0.89 24.8 0 1 548.96 645.03
  L 545.50 644.32
  A 1.07 1.06 -55.0 0 0 544.68 644.47
  Q 542.13 646.09 539.03 646.16
  Q 538.48 646.17 538.02 646.48
  Q 535.03 648.52 531.37 647.91
  A 1.58 1.58 0.0 0 0 530.16 648.21
  Q 527.10 650.56 523.24 650.65
  A 1.25 1.25 0.0 0 0 522.20 651.26
  Q 520.58 653.96 517.25 654.19
  A 1.45 1.43 24.6 0 0 516.51 654.46
  Q 513.23 656.91 509.30 657.82
  C 507.38 658.27 506.01 659.28 504.20 659.98
  Q 503.68 660.18 503.51 660.71
  L 502.78 663.01
  A 0.19 0.18 10.5 0 0 502.95 663.25
  Q 503.10 663.26 503.26 663.22
  A 0.10 0.07 -48.7 0 1 503.24 663.39
  Q 503.02 663.46 502.83 663.65
  Q 502.56 663.93 502.17 663.93
  Q 492.30 663.89 475.50 663.34
  C 416.10 661.40 364.80 657.65 303.00 657.43
  C 264.70 657.29 218.79 656.24 164.36 656.80
  C 156.39 656.88 149.06 658.95 140.70 658.01
  Q 134.15 657.27 131.23 657.28
  C 123.96 657.30 112.49 658.88 105.80 656.91
  C 103.05 656.10 100.62 656.59 97.68 656.10
  C 94.99 655.65 92.47 656.84 90.05 656.76
  Q 86.69 656.65 86.17 656.77
  Q 83.23 657.42 80.44 657.47
  L 0.00 658.91
  L 0.00 0.00
  Z"
/>
<path fill="#dddddd" d="
  M 1581.88 626.14
  Q 1571.79 627.53 1551.00 628.51
  Q 1422.74 634.58 1194.54 647.49
  Q 1184.71 648.05 1174.58 648.72
  Q 1076.30 655.29 978.00 661.46
  C 975.62 661.61 973.04 662.16 970.54 662.28
  Q 970.05 662.30 969.87 662.75
  C 967.39 669.13 961.66 662.78 960.01 666.47
  C 958.40 670.04 954.84 666.14 952.77 670.08
  A 1.11 1.11 0.0 0 0 952.82 671.21
  L 953.52 672.27
  A 0.61 0.60 47.9 0 1 953.49 672.98
  Q 950.99 676.11 947.51 674.49
  Q 946.96 674.23 946.39 674.42
  Q 942.19 675.80 937.74 675.15
  Q 937.16 675.06 936.74 675.45
  Q 934.60 677.41 931.61 676.97
  A 1.46 1.46 0.0 0 0 929.96 678.70
  Q 930.40 680.85 928.35 681.07
  A 1.26 1.25 -76.2 0 0 927.47 681.61
  L 926.25 683.42
  A 1.07 1.06 -73.7 0 1 925.38 683.90
  Q 922.37 683.97 920.02 685.79
  Q 919.57 686.14 919.01 686.13
  Q 914.48 686.05 913.63 690.37
  Q 913.51 690.96 912.91 691.02
  L 908.34 691.43
  Q 907.94 691.47 907.72 691.14
  L 906.51 689.29
  Q 906.09 688.66 905.40 688.98
  L 904.00 689.62
  A 0.55 0.55 0.0 0 0 904.18 690.67
  L 906.69 690.94
  A 0.28 0.28 0.0 0 1 906.67 691.50
  L 905.99 691.52
  Q 876.40 690.98 829.19 692.94
  Q 775.20 695.17 721.26 697.89
  C 712.66 698.43 704.45 695.81 696.06 693.99
  C 691.48 693.00 685.05 694.95 680.35 695.61
  C 666.94 697.51 652.18 701.38 640.68 703.40
  Q 637.85 703.90 632.83 703.68
  Q 559.42 702.93 503.57 699.92
  Q 414.84 695.14 385.19 694.29
  Q 192.61 688.78 0.00 684.91
  L 0.00 658.91
  L 80.44 657.47
  Q 83.23 657.42 86.17 656.77
  Q 86.69 656.65 90.05 656.76
  C 92.47 656.84 94.99 655.65 97.68 656.10
  C 100.62 656.59 103.05 656.10 105.80 656.91
  C 112.49 658.88 123.96 657.30 131.23 657.28
  Q 134.15 657.27 140.70 658.01
  C 149.06 658.95 156.39 656.88 164.36 656.80
  C 218.79 656.24 264.70 657.29 303.00 657.43
  C 364.80 657.65 416.10 661.40 475.50 663.34
  Q 492.30 663.89 502.17 663.93
  Q 502.56 663.93 502.83 663.65
  Q 503.02 663.46 503.24 663.39
  A 0.10 0.07 -48.7 0 0 503.26 663.22
  Q 503.10 663.26 502.95 663.25
  A 0.19 0.18 10.5 0 1 502.78 663.01
  L 503.51 660.71
  Q 503.68 660.18 504.20 659.98
  C 506.01 659.28 507.38 658.27 509.30 657.82
  Q 513.23 656.91 516.51 654.46
  A 1.45 1.43 24.6 0 1 517.25 654.19
  Q 520.58 653.96 522.20 651.26
  A 1.25 1.25 0.0 0 1 523.24 650.65
  Q 527.10 650.56 530.16 648.21
  A 1.58 1.58 0.0 0 1 531.37 647.91
  Q 535.03 648.52 538.02 646.48
  Q 538.48 646.17 539.03 646.16
  Q 542.13 646.09 544.68 644.47
  A 1.07 1.06 -55.0 0 1 545.50 644.32
  L 548.96 645.03
  A 0.90 0.89 24.8 0 0 549.84 644.71
  Q 553.21 640.54 559.47 640.22
  Q 566.67 639.85 572.87 634.39
  Q 574.21 633.20 578.22 632.53
  A 1.22 1.12 47.5 0 1 578.80 632.58
  Q 581.41 633.49 583.05 631.34
  A 0.94 0.94 0.0 0 1 583.91 630.96
  L 586.63 631.26
  Q 587.21 631.33 587.73 631.06
  Q 591.15 629.28 595.14 630.20
  A 0.61 0.60 30.5 0 0 595.70 630.06
  L 598.15 627.88
  A 0.71 0.67 -57.9 0 1 598.78 627.72
  C 602.71 628.68 604.94 624.26 608.44 623.11
  Q 612.38 621.83 616.22 620.32
  Q 616.66 620.14 617.07 620.37
  Q 620.12 622.04 622.61 619.63
  A 0.71 0.70 18.7 0 1 623.02 619.43
  L 629.68 618.55
  A 0.68 0.68 0.0 0 0 629.91 617.27
  L 628.52 616.51
  A 1.59 0.94 -7.6 0 1 630.57 614.91
  C 633.04 615.70 634.05 615.21 636.06 613.44
  C 638.07 611.67 641.97 611.81 644.06 611.70
  A 0.66 0.66 0.0 0 0 644.26 610.43
  L 640.33 608.91
  A 0.61 0.61 0.0 0 1 639.95 608.32
  Q 640.10 605.97 641.66 604.18
  Q 642.04 603.74 642.61 603.68
  C 645.17 603.42 652.20 603.33 653.89 601.44
  Q 657.37 597.54 662.74 598.32
  Q 663.18 598.38 663.56 598.15
  Q 665.65 596.93 668.04 597.37
  Q 668.55 597.46 669.01 597.23
  C 673.45 595.03 677.45 594.66 682.06 593.85
  C 683.60 593.58 685.25 594.08 686.92 592.69
  Q 687.27 592.40 687.74 592.37
  L 695.75 591.99
  Q 696.25 591.97 696.70 591.74
  Q 698.10 591.00 699.78 591.28
  Q 700.33 591.37 700.69 590.96
  C 703.08 588.25 707.58 588.55 710.88 586.30
  C 712.78 585.00 715.02 584.97 716.77 584.31
  C 721.37 582.60 726.95 581.29 730.78 578.18
  C 733.94 575.61 738.67 573.08 742.42 575.86
  A 1.11 1.08 -36.0 0 0 743.43 576.01
  Q 745.53 575.27 747.61 575.99
  A 0.75 0.73 35.1 0 0 748.30 575.88
  L 752.11 572.95
  Q 752.32 572.78 752.06 572.75
  Q 751.90 572.72 751.75 572.67
  A 0.06 0.06 0.0 0 1 751.76 572.55
  C 753.69 572.26 755.45 571.80 757.38 571.73
  C 801.12 570.10 834.73 568.96 874.94 572.59
  Q 895.90 574.48 962.75 581.52
  Q 995.33 584.94 1043.82 585.45
  Q 1145.09 586.49 1179.25 586.99
  C 1198.96 587.28 1220.81 588.54 1241.42 591.32
  C 1295.02 598.57 1348.58 606.12 1402.24 612.81
  C 1429.26 616.17 1456.61 619.48 1483.80 621.04
  Q 1532.70 623.85 1581.88 626.14
  Z"
/>
<path fill="#4c4c4c" d="
  M 1920.00 589.84
  L 1920.00 679.08
  L 1916.55 676.36
  Q 1916.14 676.04 1915.63 676.12
  Q 1912.07 676.70 1908.46 676.98
  C 1904.25 677.30 1899.44 678.42 1894.65 678.10
  A 0.84 0.84 0.0 0 1 1893.97 677.64
  Q 1893.33 676.34 1891.93 675.99
  A 1.08 1.08 0.0 0 0 1891.23 676.05
  C 1887.22 677.85 1884.27 676.65 1880.37 677.43
  C 1876.91 678.12 1870.95 679.03 1867.74 677.15
  A 1.43 1.42 54.9 0 0 1866.78 676.98
  C 1863.03 677.65 1859.43 677.14 1855.79 677.66
  Q 1851.26 678.31 1846.64 678.16
  C 1844.82 678.11 1844.02 676.94 1841.87 677.18
  C 1838.51 677.57 1835.36 677.13 1832.07 677.61
  Q 1827.49 678.27 1822.84 678.20
  C 1820.74 678.16 1820.05 676.76 1817.59 677.13
  C 1814.22 677.65 1811.13 677.10 1807.85 677.61
  C 1805.17 678.02 1798.59 678.94 1796.31 677.41
  A 1.37 1.37 0.0 0 0 1795.43 677.18
  C 1791.01 677.57 1787.06 677.12 1782.58 677.79
  C 1779.07 678.32 1774.92 678.58 1771.98 677.15
  A 1.67 1.61 53.5 0 0 1771.02 676.99
  C 1767.07 677.49 1763.55 676.75 1759.60 677.56
  Q 1755.33 678.43 1750.88 677.86
  Q 1750.37 677.79 1750.02 677.41
  Q 1747.88 675.12 1744.97 676.94
  Q 1744.61 677.17 1744.18 677.12
  C 1739.82 676.53 1736.28 677.77 1732.40 677.97
  C 1730.08 678.09 1726.30 678.84 1725.50 676.79
  Q 1725.31 676.31 1724.81 676.23
  C 1722.67 675.88 1721.21 676.97 1719.31 677.00
  C 1716.67 677.03 1714.73 676.81 1711.97 677.55
  Q 1708.65 678.45 1705.16 677.72
  Q 1704.61 677.60 1704.10 677.81
  Q 1702.17 678.60 1701.49 676.81
  A 0.92 0.91 82.7 0 0 1700.76 676.24
  Q 1698.83 675.98 1697.05 676.81
  Q 1696.60 677.03 1696.09 676.99
  C 1690.93 676.58 1685.61 678.13 1678.81 678.19
  A 0.99 0.99 0.0 0 1 1677.96 677.74
  Q 1676.20 675.12 1673.27 676.92
  A 1.51 1.46 32.3 0 1 1672.26 677.13
  Q 1668.75 676.63 1665.33 677.24
  C 1661.26 677.98 1658.66 678.06 1655.06 678.19
  Q 1653.98 678.22 1653.48 676.94
  A 1.06 1.03 -5.3 0 0 1652.67 676.28
  Q 1650.67 675.96 1648.80 676.92
  Q 1648.35 677.15 1647.85 677.09
  Q 1643.35 676.54 1639.00 677.78
  Q 1637.11 678.31 1630.65 678.11
  A 0.97 0.95 75.1 0 1 1629.87 677.65
  C 1628.29 675.02 1625.93 676.81 1624.14 676.93
  C 1621.54 677.10 1619.25 676.83 1616.64 677.37
  C 1613.07 678.11 1607.54 679.01 1604.24 677.12
  Q 1603.81 676.87 1603.31 676.92
  C 1599.11 677.36 1595.46 676.84 1591.18 677.63
  C 1587.91 678.24 1583.00 679.01 1580.19 676.79
  A 1.20 1.19 -28.3 0 0 1579.35 676.54
  L 1558.45 678.37
  A 0.73 0.72 72.4 0 1 1557.78 678.02
  C 1556.95 676.65 1556.11 676.36 1554.48 676.62
  C 1550.63 677.21 1547.17 676.86 1543.24 677.61
  Q 1539.17 678.39 1534.93 678.12
  Q 1534.43 678.09 1534.04 677.79
  L 1532.67 676.72
  Q 1532.29 676.42 1531.80 676.46
  L 1511.12 678.32
  Q 1510.57 678.37 1510.25 677.92
  Q 1508.11 674.98 1505.04 676.90
  A 1.56 1.53 -56.6 0 1 1504.03 677.12
  Q 1500.38 676.64 1496.85 677.32
  C 1493.23 678.02 1490.57 678.02 1487.24 678.27
  A 1.23 1.20 -24.1 0 1 1486.29 677.92
  L 1484.81 676.43
  A 0.82 0.81 60.3 0 0 1484.06 676.22
  C 1479.65 677.25 1475.55 676.83 1471.08 677.65
  Q 1466.83 678.43 1462.32 678.10
  A 1.11 1.10 74.3 0 1 1461.51 677.64
  Q 1459.88 675.33 1457.37 676.90
  A 1.55 1.51 31.8 0 1 1456.36 677.12
  C 1451.99 676.55 1448.09 677.86 1444.38 677.99
  Q 1441.68 678.09 1438.97 678.07
  Q 1438.46 678.07 1438.03 677.79
  L 1436.22 676.66
  Q 1435.79 676.39 1435.29 676.47
  C 1431.15 677.17 1427.41 676.90 1423.09 677.68
  Q 1418.81 678.45 1414.37 677.85
  Q 1413.87 677.78 1413.47 677.46
  C 1411.38 675.78 1407.17 677.04 1404.50 677.05
  C 1399.72 677.07 1392.60 679.83 1388.50 676.58
  Q 1388.10 676.26 1387.58 676.35
  C 1382.96 677.18 1378.02 676.31 1373.75 677.67
  Q 1368.46 679.35 1363.61 676.18
  Q 1363.20 675.92 1362.75 676.11
  Q 1358.87 677.81 1354.70 676.56
  A 0.64 0.63 32.1 0 0 1354.10 676.69
  Q 1351.30 679.14 1349.59 676.19
  Q 1349.56 676.13 1349.67 676.08
  Q 1349.74 676.05 1349.79 676.01
  Q 1350.24 675.74 1349.75 675.75
  Q 1349.60 675.75 1349.45 675.75
  Q 1349.23 675.75 1349.39 675.60
  Q 1349.77 675.24 1349.49 675.12
  Q 1362.34 673.67 1410.75 667.47
  Q 1465.11 660.50 1511.99 646.73
  C 1533.26 640.49 1551.88 635.42 1572.33 631.73
  Q 1587.56 628.97 1602.76 626.12
  Q 1675.42 612.79 1747.91 598.59
  Q 1757.02 596.81 1765.87 596.11
  C 1816.27 592.15 1869.30 589.38 1920.00 589.84
  Z"
/>
<path fill="#b8b8b8" d="
  M 1602.76 626.12
  Q 1587.56 628.97 1572.33 631.73
  C 1551.88 635.42 1533.26 640.49 1511.99 646.73
  Q 1465.11 660.50 1410.75 667.47
  Q 1362.34 673.67 1349.49 675.12
  L 1290.75 681.61
  Q 1284.95 682.43 1281.07 681.92
  Q 1254.02 678.42 1226.85 676.00
  C 1219.85 675.37 1212.04 675.57 1205.10 676.03
  C 1170.93 678.32 1136.76 680.82 1102.57 682.65
  C 1062.60 684.80 1023.54 689.07 982.96 692.29
  Q 972.78 693.09 963.01 692.99
  Q 934.50 692.70 905.99 691.52
  L 906.67 691.50
  A 0.28 0.28 0.0 0 0 906.69 690.94
  L 904.18 690.67
  A 0.55 0.55 0.0 0 1 904.00 689.62
  L 905.40 688.98
  Q 906.09 688.66 906.51 689.29
  L 907.72 691.14
  Q 907.94 691.47 908.34 691.43
  L 912.91 691.02
  Q 913.51 690.96 913.63 690.37
  Q 914.48 686.05 919.01 686.13
  Q 919.57 686.14 920.02 685.79
  Q 922.37 683.97 925.38 683.90
  A 1.07 1.06 -73.7 0 0 926.25 683.42
  L 927.47 681.61
  A 1.26 1.25 -76.2 0 1 928.35 681.07
  Q 930.40 680.85 929.96 678.70
  A 1.46 1.46 0.0 0 1 931.61 676.97
  Q 934.60 677.41 936.74 675.45
  Q 937.16 675.06 937.74 675.15
  Q 942.19 675.80 946.39 674.42
  Q 946.96 674.23 947.51 674.49
  Q 950.99 676.11 953.49 672.98
  A 0.61 0.60 47.9 0 0 953.52 672.27
  L 952.82 671.21
  A 1.11 1.11 0.0 0 1 952.77 670.08
  C 954.84 666.14 958.40 670.04 960.01 666.47
  C 961.66 662.78 967.39 669.13 969.87 662.75
  Q 970.05 662.30 970.54 662.28
  C 973.04 662.16 975.62 661.61 978.00 661.46
  Q 1076.30 655.29 1174.58 648.72
  Q 1184.71 648.05 1194.54 647.49
  Q 1422.74 634.58 1551.00 628.51
  Q 1571.79 627.53 1581.88 626.14
  C 1589.71 626.81 1596.19 625.16 1602.76 626.12
  Z"
/>
<path fill="#3e3e3e" d="
  M 1349.49 675.12
  Q 1349.77 675.24 1349.39 675.60
  Q 1349.23 675.75 1349.45 675.75
  Q 1349.60 675.75 1349.75 675.75
  Q 1350.24 675.74 1349.79 676.01
  Q 1349.74 676.05 1349.67 676.08
  Q 1349.56 676.13 1349.59 676.19
  Q 1351.30 679.14 1354.10 676.69
  A 0.64 0.63 32.1 0 1 1354.70 676.56
  Q 1358.87 677.81 1362.75 676.11
  Q 1363.20 675.92 1363.61 676.18
  Q 1368.46 679.35 1373.75 677.67
  C 1378.02 676.31 1382.96 677.18 1387.58 676.35
  Q 1388.10 676.26 1388.50 676.58
  C 1392.60 679.83 1399.72 677.07 1404.50 677.05
  C 1407.17 677.04 1411.38 675.78 1413.47 677.46
  Q 1413.87 677.78 1414.37 677.85
  Q 1418.81 678.45 1423.09 677.68
  C 1427.41 676.90 1431.15 677.17 1435.29 676.47
  Q 1435.79 676.39 1436.22 676.66
  L 1438.03 677.79
  Q 1438.46 678.07 1438.97 678.07
  Q 1441.68 678.09 1444.38 677.99
  C 1448.09 677.86 1451.99 676.55 1456.36 677.12
  A 1.55 1.51 31.8 0 0 1457.37 676.90
  Q 1459.88 675.33 1461.51 677.64
  A 1.11 1.10 74.3 0 0 1462.32 678.10
  Q 1466.83 678.43 1471.08 677.65
  C 1475.55 676.83 1479.65 677.25 1484.06 676.22
  A 0.82 0.81 60.3 0 1 1484.81 676.43
  L 1486.29 677.92
  A 1.23 1.20 -24.1 0 0 1487.24 678.27
  C 1490.57 678.02 1493.23 678.02 1496.85 677.32
  Q 1500.38 676.64 1504.03 677.12
  A 1.56 1.53 -56.6 0 0 1505.04 676.90
  Q 1508.11 674.98 1510.25 677.92
  Q 1510.57 678.37 1511.12 678.32
  L 1531.80 676.46
  Q 1532.29 676.42 1532.67 676.72
  L 1534.04 677.79
  Q 1534.43 678.09 1534.93 678.12
  Q 1539.17 678.39 1543.24 677.61
  C 1547.17 676.86 1550.63 677.21 1554.48 676.62
  C 1556.11 676.36 1556.95 676.65 1557.78 678.02
  A 0.73 0.72 72.4 0 0 1558.45 678.37
  L 1579.35 676.54
  A 1.20 1.19 -28.3 0 1 1580.19 676.79
  C 1583.00 679.01 1587.91 678.24 1591.18 677.63
  C 1595.46 676.84 1599.11 677.36 1603.31 676.92
  Q 1603.81 676.87 1604.24 677.12
  C 1607.54 679.01 1613.07 678.11 1616.64 677.37
  C 1619.25 676.83 1621.54 677.10 1624.14 676.93
  C 1625.93 676.81 1628.29 675.02 1629.87 677.65
  A 0.97 0.95 75.1 0 0 1630.65 678.11
  Q 1637.11 678.31 1639.00 677.78
  Q 1643.35 676.54 1647.85 677.09
  Q 1648.35 677.15 1648.80 676.92
  Q 1650.67 675.96 1652.67 676.28
  A 1.06 1.03 -5.3 0 1 1653.48 676.94
  Q 1653.98 678.22 1655.06 678.19
  C 1658.66 678.06 1661.26 677.98 1665.33 677.24
  Q 1668.75 676.63 1672.26 677.13
  A 1.51 1.46 32.3 0 0 1673.27 676.92
  Q 1676.20 675.12 1677.96 677.74
  A 0.99 0.99 0.0 0 0 1678.81 678.19
  C 1685.61 678.13 1690.93 676.58 1696.09 676.99
  Q 1696.60 677.03 1697.05 676.81
  Q 1698.83 675.98 1700.76 676.24
  A 0.92 0.91 82.7 0 1 1701.49 676.81
  Q 1702.17 678.60 1704.10 677.81
  Q 1704.61 677.60 1705.16 677.72
  Q 1708.65 678.45 1711.97 677.55
  C 1714.73 676.81 1716.67 677.03 1719.31 677.00
  C 1721.21 676.97 1722.67 675.88 1724.81 676.23
  Q 1725.31 676.31 1725.50 676.79
  C 1726.30 678.84 1730.08 678.09 1732.40 677.97
  C 1736.28 677.77 1739.82 676.53 1744.18 677.12
  Q 1744.61 677.17 1744.97 676.94
  Q 1747.88 675.12 1750.02 677.41
  Q 1750.37 677.79 1750.88 677.86
  Q 1755.33 678.43 1759.60 677.56
  C 1763.55 676.75 1767.07 677.49 1771.02 676.99
  A 1.67 1.61 53.5 0 1 1771.98 677.15
  C 1774.92 678.58 1779.07 678.32 1782.58 677.79
  C 1787.06 677.12 1791.01 677.57 1795.43 677.18
  A 1.37 1.37 0.0 0 1 1796.31 677.41
  C 1798.59 678.94 1805.17 678.02 1807.85 677.61
  C 1811.13 677.10 1814.22 677.65 1817.59 677.13
  C 1820.05 676.76 1820.74 678.16 1822.84 678.20
  Q 1827.49 678.27 1832.07 677.61
  C 1835.36 677.13 1838.51 677.57 1841.87 677.18
  C 1844.02 676.94 1844.82 678.11 1846.64 678.16
  Q 1851.26 678.31 1855.79 677.66
  C 1859.43 677.14 1863.03 677.65 1866.78 676.98
  A 1.43 1.42 54.9 0 1 1867.74 677.15
  C 1870.95 679.03 1876.91 678.12 1880.37 677.43
  C 1884.27 676.65 1887.22 677.85 1891.23 676.05
  A 1.08 1.08 0.0 0 1 1891.93 675.99
  Q 1893.33 676.34 1893.97 677.64
  A 0.84 0.84 0.0 0 0 1894.65 678.10
  C 1899.44 678.42 1904.25 677.30 1908.46 676.98
  Q 1912.07 676.70 1915.63 676.12
  Q 1916.14 676.04 1916.55 676.36
  L 1920.00 679.08
  L 1920.00 723.30
  Q 1917.74 723.27 1915.50 722.99
  Q 1862.42 716.38 1809.25 710.50
  C 1779.96 707.26 1754.00 704.08 1727.75 703.14
  C 1637.47 699.90 1545.63 693.34 1459.99 688.75
  Q 1450.12 688.22 1440.00 688.13
  C 1401.51 687.78 1362.92 687.76 1324.45 686.35
  C 1313.50 685.95 1302.65 684.53 1291.75 683.22
  Q 1291.27 683.16 1291.27 682.67
  Q 1291.28 681.79 1290.75 681.61
  L 1349.49 675.12
  Z"
/>
<path fill="#282828" d="
  M 1290.75 681.61
  Q 1291.28 681.79 1291.27 682.67
  Q 1291.27 683.16 1291.75 683.22
  C 1302.65 684.53 1313.50 685.95 1324.45 686.35
  C 1362.92 687.76 1401.51 687.78 1440.00 688.13
  Q 1450.12 688.22 1459.99 688.75
  C 1545.63 693.34 1637.47 699.90 1727.75 703.14
  C 1754.00 704.08 1779.96 707.26 1809.25 710.50
  Q 1862.42 716.38 1915.50 722.99
  Q 1917.74 723.27 1920.00 723.30
  L 1920.00 794.66
  Q 1893.65 790.31 1867.49 785.32
  C 1854.55 782.85 1841.59 780.38 1829.16 775.54
  Q 1817.52 771.01 1805.93 766.32
  C 1783.81 757.37 1758.82 759.73 1735.32 762.37
  C 1665.76 770.18 1598.57 788.75 1531.26 807.07
  C 1530.14 807.11 1529.40 806.59 1528.48 806.54
  Q 1512.88 805.60 1497.27 806.18
  Q 1487.22 806.55 1483.23 806.29
  C 1470.10 805.43 1457.26 802.05 1444.88 797.75
  C 1418.26 788.50 1388.79 776.02 1361.75 773.99
  C 1335.38 772.00 1308.87 771.62 1282.43 771.26
  C 1225.28 770.49 1167.19 770.28 1110.94 765.31
  C 1051.02 760.01 991.29 752.97 931.66 745.08
  Q 921.84 743.79 911.98 741.62
  Q 821.63 721.73 731.31 701.69
  Q 724.85 700.25 721.26 697.89
  Q 775.20 695.17 829.19 692.94
  Q 876.40 690.98 905.99 691.52
  Q 934.50 692.70 963.01 692.99
  Q 972.78 693.09 982.96 692.29
  C 1023.54 689.07 1062.60 684.80 1102.57 682.65
  C 1136.76 680.82 1170.93 678.32 1205.10 676.03
  C 1212.04 675.57 1219.85 675.37 1226.85 676.00
  Q 1254.02 678.42 1281.07 681.92
  Q 1284.95 682.43 1290.75 681.61
  Z"
/>
<path fill="#3e3e3e" d="
  M 632.83 703.68
  Q 631.18 705.28 627.26 706.05
  Q 550.81 721.21 474.19 735.43
  Q 454.21 739.14 434.09 742.02
  C 432.18 742.29 429.76 742.34 427.69 742.71
  C 407.22 741.54 381.93 740.12 359.72 742.87
  C 355.99 743.33 352.62 744.36 349.05 745.43
  Q 323.96 752.97 298.70 760.42
  Q 287.94 763.43 283.00 764.03
  Q 141.55 781.11 0.00 798.09
  L 0.00 684.91
  Q 192.61 688.78 385.19 694.29
  Q 414.84 695.14 503.57 699.92
  Q 559.42 702.93 632.83 703.68
  Z"
/>
<path fill="#1f1f1f" d="
  M 721.26 697.89
  Q 724.85 700.25 731.31 701.69
  Q 821.63 721.73 911.98 741.62
  Q 921.84 743.79 931.66 745.08
  C 991.29 752.97 1051.02 760.01 1110.94 765.31
  C 1167.19 770.28 1225.28 770.49 1282.43 771.26
  C 1308.87 771.62 1335.38 772.00 1361.75 773.99
  C 1388.79 776.02 1418.26 788.50 1444.88 797.75
  C 1457.26 802.05 1470.10 805.43 1483.23 806.29
  Q 1487.22 806.55 1497.27 806.18
  Q 1512.88 805.60 1528.48 806.54
  C 1529.40 806.59 1530.14 807.11 1531.26 807.07
  Q 1473.34 824.21 1415.24 840.73
  C 1385.00 849.33 1356.90 853.94 1330.00 856.29
  Q 1245.51 863.69 1160.69 864.05
  C 1146.68 864.11 1133.15 857.76 1119.98 853.56
  C 1103.84 848.42 1086.23 846.28 1069.00 847.25
  Q 1035.73 849.12 988.94 853.68
  Q 968.95 855.62 940.58 857.05
  C 922.76 857.94 904.39 862.36 886.99 866.20
  Q 865.43 870.95 843.45 869.21
  C 828.11 868.00 813.10 866.32 797.69 867.65
  Q 780.75 869.10 732.51 876.10
  Q 663.61 886.09 594.56 895.08
  Q 573.44 897.83 552.21 899.69
  C 536.79 901.04 524.24 900.30 510.00 896.97
  C 463.08 885.98 417.36 870.29 371.64 855.20
  C 363.34 852.46 356.26 857.38 347.10 861.97
  C 343.74 863.65 338.53 864.38 334.78 864.75
  Q 310.31 867.12 285.79 868.86
  C 282.96 869.06 279.38 869.63 276.84 870.09
  C 239.90 876.82 202.97 883.85 165.88 889.70
  C 111.99 898.20 54.65 896.01 0.00 892.80
  L 0.00 798.09
  Q 141.55 781.11 283.00 764.03
  Q 287.94 763.43 298.70 760.42
  Q 299.56 762.35 303.43 761.65
  Q 308.54 760.72 317.30 759.75
  Q 355.90 755.47 394.43 750.65
  Q 413.86 748.22 427.69 742.71
  C 429.76 742.34 432.18 742.29 434.09 742.02
  Q 454.21 739.14 474.19 735.43
  Q 550.81 721.21 627.26 706.05
  Q 631.18 705.28 632.83 703.68
  Q 637.85 703.90 640.68 703.40
  C 652.18 701.38 666.94 697.51 680.35 695.61
  C 685.05 694.95 691.48 693.00 696.06 693.99
  C 704.45 695.81 712.66 698.43 721.26 697.89
  Z"
/>
<path fill="#282828" d="
  M 427.69 742.71
  Q 413.86 748.22 394.43 750.65
  Q 355.90 755.47 317.30 759.75
  Q 308.54 760.72 303.43 761.65
  Q 299.56 762.35 298.70 760.42
  Q 323.96 752.97 349.05 745.43
  C 352.62 744.36 355.99 743.33 359.72 742.87
  C 381.93 740.12 407.22 741.54 427.69 742.71
  Z"
/>
<path fill="#090909" d="
  M 1920.00 794.66
  L 1920.00 1080.00
  L 0.00 1080.00
  L 0.00 892.80
  C 54.65 896.01 111.99 898.20 165.88 889.70
  C 202.97 883.85 239.90 876.82 276.84 870.09
  C 279.38 869.63 282.96 869.06 285.79 868.86
  Q 310.31 867.12 334.78 864.75
  C 338.53 864.38 343.74 863.65 347.10 861.97
  C 356.26 857.38 363.34 852.46 371.64 855.20
  C 417.36 870.29 463.08 885.98 510.00 896.97
  C 524.24 900.30 536.79 901.04 552.21 899.69
  Q 573.44 897.83 594.56 895.08
  Q 663.61 886.09 732.51 876.10
  Q 780.75 869.10 797.69 867.65
  C 813.10 866.32 828.11 868.00 843.45 869.21
  Q 865.43 870.95 886.99 866.20
  C 904.39 862.36 922.76 857.94 940.58 857.05
  Q 968.95 855.62 988.94 853.68
  Q 1035.73 849.12 1069.00 847.25
  C 1086.23 846.28 1103.84 848.42 1119.98 853.56
  C 1133.15 857.76 1146.68 864.11 1160.69 864.05
  Q 1245.51 863.69 1330.00 856.29
  C 1356.90 853.94 1385.00 849.33 1415.24 840.73
  Q 1473.34 824.21 1531.26 807.07
  C 1598.57 788.75 1665.76 770.18 1735.32 762.37
  C 1758.82 759.73 1783.81 757.37 1805.93 766.32
  Q 1817.52 771.01 1829.16 775.54
  C 1841.59 780.38 1854.55 782.85 1867.49 785.32
  Q 1893.65 790.31 1920.00 794.66
  Z"
/>
</svg>
